<svg data-v-29081953="" xmlns="http://www.w3.org/2000/svg" viewBox="0 0 300 300"><!----><defs data-v-29081953=""><!----></defs><rect data-v-29081953="" fill="transparent" x="0" y="0" width="300px" height="300px" class="logo-background-square"></rect><!----><defs data-v-29081953=""><linearGradient data-v-29081953="" gradientTransform="rotate(25)" id="c496173b-e535-4577-aeb7-f7b0073ef928" x1="0%" y1="0%" x2="100%" y2="0%"><stop data-v-29081953="" offset="0%" stop-color="#EA1F59" stop-opacity="1"></stop><stop data-v-29081953="" offset="100%" stop-color="#FA9169" stop-opacity="1"></stop></linearGradient></defs><g data-v-29081953="" id="be9504ef-e742-4668-852a-1ef2aba865f2" fill="url(#c496173b-e535-4577-aeb7-f7b0073ef928)" stroke="none" transform="matrix(3.571337938308716,0,0,3.571337938308716,-28.566899175649965,-28.56689917564995)"><path d="M67.2 70.9H32.8c-1.1 0-2-.9-2-2V55.4c0-10.6 8.6-19.2 19.2-19.2s19.2 8.6 19.2 19.2V69c0 1-.9 1.9-2 1.9zM34.8 67h30.4V55.4c0-8.4-6.8-15.2-15.2-15.2-8.4 0-15.2 6.8-15.2 15.2V67z"></path><path d="M40 52.4c-.5 0-1-.2-1.4-.5-.8-.8-.8-2-.1-2.8 3-3.1 6.7-5.1 11-5.7 1.1-.2 2.1.6 2.3 1.7.2 1.1-.6 2.1-1.7 2.3-3.4.5-6.4 2.1-8.7 4.5-.4.2-.9.5-1.4.5zM67.2 78.8H32.8c-1.1 0-2-.9-2-2s.9-2 2-2h34.4c1.1 0 2 .9 2 2s-.9 2-2 2zM78.8 54h-4.3c-1.1 0-2-.9-2-2s.9-2 2-2h4.3c1.1 0 2 .9 2 2-.1 1.1-.9 2-2 2zM25.5 54h-4.3c-1.1 0-2-.9-2-2s.9-2 2-2h4.3c1.1 0 2 .9 2 2s-.9 2-2 2zM31.3 36.1l-3-3.1c-.8-.8-.8-2 0-2.8.8-.8 2-.8 2.8 0l3.1 3.1c.8.8.8 2 0 2.8-.9.8-2.1.8-2.9 0zM48 27.5v-4.3c0-1.1.9-2 2-2s2 .9 2 2v4.3c0 1.1-.9 2-2 2s-2-.9-2-2zM65.9 33.3l3.1-3.1c.8-.8 2-.8 2.8 0 .8.8.8 2 0 2.8l-3.1 3.1c-.8.8-2 .8-2.8 0-.8-.8-.8-2 0-2.8z"></path></g><!----></svg>