<svg data-v-d3f97b9e="" xmlns="http://www.w3.org/2000/svg" viewBox="0 0 271.5476904619076 60"><!----><!----><linearGradient data-v-d3f97b9e="" gradientTransform="rotate(25)" id="308014c2-59d4-40b2-a9a0-aa0e578187ea" x1="0%" y1="0%" x2="100%" y2="0%"><stop data-v-d3f97b9e="" offset="0%" style="stop-color: rgb(234, 31, 89); stop-opacity: 1;"></stop><stop data-v-d3f97b9e="" offset="100%" style="stop-color: rgb(250, 145, 105); stop-opacity: 1;"></stop></linearGradient><g data-v-d3f97b9e="" id="319d7f37-19ab-47f7-bc2c-cb495a46f423" fill="url(#308014c2-59d4-40b2-a9a0-aa0e578187ea)" transform="matrix(4.607078552246094,0,0,4.607078552246094,-6.082793235778809,-14.505098342895508)"><path d="M1.62 13.09L1.62 13.09Q1.48 13.09 1.40 13.01L1.40 13.01L1.40 13.01Q1.32 12.92 1.32 12.78L1.32 12.78L1.32 3.61L1.32 3.61Q1.32 3.47 1.40 3.38L1.40 3.38L1.40 3.38Q1.48 3.29 1.62 3.29L1.62 3.29L4.89 3.29L4.89 3.29Q6.40 3.29 7.25 4.00L7.25 4.00L7.25 4.00Q8.11 4.72 8.11 6.12L8.11 6.12L8.11 6.12Q8.11 7.22 7.56 7.90L7.56 7.90L7.56 7.90Q7.01 8.58 5.99 8.82L5.99 8.82L8.25 12.66L8.25 12.66Q8.29 12.74 8.29 12.81L8.29 12.81L8.29 12.81Q8.29 12.92 8.20 13.01L8.20 13.01L8.20 13.01Q8.12 13.09 8.01 13.09L8.01 13.09L7.84 13.09L7.84 13.09Q7.63 13.09 7.53 13.00L7.53 13.00L7.53 13.00Q7.42 12.91 7.31 12.71L7.31 12.71L5.08 8.95L2.20 8.95L2.20 12.78L2.20 12.78Q2.20 12.92 2.11 13.01L2.11 13.01L2.11 13.01Q2.02 13.09 1.88 13.09L1.88 13.09L1.62 13.09ZM2.20 8.11L4.82 8.11L4.82 8.11Q6.03 8.11 6.63 7.61L6.63 7.61L6.63 7.61Q7.22 7.11 7.22 6.12L7.22 6.12L7.22 6.12Q7.22 5.12 6.63 4.63L6.63 4.63L6.63 4.63Q6.03 4.13 4.82 4.13L4.82 4.13L2.20 4.13L2.20 8.11ZM12.80 13.23L12.80 13.23Q11.47 13.23 10.65 12.36L10.65 12.36L10.65 12.36Q9.84 11.48 9.73 10.01L9.73 10.01L9.72 9.45L9.73 8.89L9.73 8.89Q9.84 7.43 10.65 6.55L10.65 6.55L10.65 6.55Q11.45 5.67 12.80 5.67L12.80 5.67L12.80 5.67Q14.25 5.67 15.07 6.64L15.07 6.64L15.07 6.64Q15.89 7.60 15.89 9.28L15.89 9.28L15.89 9.49L15.89 9.49Q15.89 9.63 15.80 9.72L15.80 9.72L15.80 9.72Q15.71 9.80 15.57 9.80L15.57 9.80L10.58 9.80L10.58 9.94L10.58 9.94Q10.61 10.60 10.89 11.16L10.89 11.16L10.89 11.16Q11.16 11.73 11.65 12.07L11.65 12.07L11.65 12.07Q12.14 12.42 12.80 12.42L12.80 12.42L12.80 12.42Q13.57 12.42 14.05 12.12L14.05 12.12L14.05 12.12Q14.53 11.82 14.74 11.51L14.74 11.51L14.74 11.51Q14.87 11.34 14.93 11.30L14.93 11.30L14.93 11.30Q14.99 11.26 15.16 11.26L15.16 11.26L15.39 11.26L15.39 11.26Q15.51 11.26 15.60 11.33L15.60 11.33L15.60 11.33Q15.68 11.40 15.68 11.51L15.68 11.51L15.68 11.51Q15.68 11.80 15.31 12.21L15.31 12.21L15.31 12.21Q14.94 12.63 14.28 12.93L14.28 12.93L14.28 12.93Q13.62 13.23 12.80 13.23L12.80 13.23ZM10.58 9.02L15.04 9.02L15.04 8.96L15.04 8.96Q15.04 7.88 14.43 7.18L14.43 7.18L14.43 7.18Q13.82 6.48 12.80 6.48L12.80 6.48L12.80 6.48Q11.77 6.48 11.18 7.18L11.18 7.18L11.18 7.18Q10.58 7.88 10.58 8.96L10.58 8.96L10.58 9.02ZM20.37 13.23L20.37 13.23Q18.86 13.23 18.14 12.24L18.14 12.24L18.14 12.24Q17.42 11.26 17.37 9.84L17.37 9.84L17.36 9.45L17.37 9.06L17.37 9.06Q17.42 7.64 18.14 6.66L18.14 6.66L18.14 6.66Q18.86 5.67 20.37 5.67L20.37 5.67L20.37 5.67Q21.90 5.67 22.72 6.78L22.72 6.78L22.72 3.46L22.72 3.46Q22.72 3.32 22.81 3.23L22.81 3.23L22.81 3.23Q22.89 3.15 23.03 3.15L23.03 3.15L23.27 3.15L23.27 3.15Q23.41 3.15 23.49 3.23L23.49 3.23L23.49 3.23Q23.58 3.32 23.58 3.46L23.58 3.46L23.58 12.78L23.58 12.78Q23.58 12.92 23.49 13.01L23.49 13.01L23.49 13.01Q23.41 13.09 23.27 13.09L23.27 13.09L23.03 13.09L23.03 13.09Q22.89 13.09 22.81 13.01L22.81 13.01L22.81 13.01Q22.72 12.92 22.72 12.78L22.72 12.78L22.72 12.12L22.72 12.12Q21.91 13.23 20.37 13.23L20.37 13.23ZM20.45 12.42L20.45 12.42Q21.56 12.42 22.12 11.68L22.12 11.68L22.12 11.68Q22.68 10.95 22.72 9.95L22.72 9.95L22.72 9.95Q22.74 9.81 22.74 9.41L22.74 9.41L22.74 9.41Q22.74 9.00 22.72 8.86L22.72 8.86L22.72 8.86Q22.71 8.26 22.46 7.72L22.46 7.72L22.46 7.72Q22.20 7.18 21.70 6.83L21.70 6.83L21.70 6.83Q21.20 6.48 20.45 6.48L20.45 6.48L20.45 6.48Q19.32 6.48 18.79 7.20L18.79 7.20L18.79 7.20Q18.27 7.92 18.23 9.06L18.23 9.06L18.21 9.45L18.21 9.45Q18.21 10.75 18.72 11.58L18.72 11.58L18.72 11.58Q19.22 12.42 20.45 12.42L20.45 12.42ZM29.96 13.09L29.96 13.09Q29.82 13.09 29.74 13.01L29.74 13.01L29.74 13.01Q29.65 12.92 29.65 12.78L29.65 12.78L29.65 3.60L29.65 3.60Q29.65 3.46 29.74 3.37L29.74 3.37L29.74 3.37Q29.82 3.29 29.96 3.29L29.96 3.29L30.23 3.29L30.23 3.29Q30.37 3.29 30.45 3.37L30.45 3.37L30.45 3.37Q30.53 3.46 30.53 3.60L30.53 3.60L30.53 12.25L35.36 12.25L35.36 12.25Q35.52 12.25 35.60 12.33L35.60 12.33L35.60 12.33Q35.69 12.42 35.69 12.57L35.69 12.57L35.69 12.78L35.69 12.78Q35.69 12.92 35.59 13.01L35.59 13.01L35.59 13.01Q35.50 13.09 35.36 13.09L35.36 13.09L29.96 13.09ZM37.30 4.31L37.30 4.31Q37.16 4.31 37.07 4.23L37.07 4.23L37.07 4.23Q36.99 4.14 36.99 4.00L36.99 4.00L36.99 3.47L36.99 3.47Q36.99 3.33 37.07 3.24L37.07 3.24L37.07 3.24Q37.16 3.15 37.30 3.15L37.30 3.15L37.83 3.15L37.83 3.15Q37.97 3.15 38.06 3.24L38.06 3.24L38.06 3.24Q38.15 3.33 38.15 3.47L38.15 3.47L38.15 4.00L38.15 4.00Q38.15 4.14 38.06 4.23L38.06 4.23L38.06 4.23Q37.97 4.31 37.83 4.31L37.83 4.31L37.30 4.31ZM37.45 13.09L37.45 13.09Q37.31 13.09 37.23 13.01L37.23 13.01L37.23 13.01Q37.14 12.92 37.14 12.78L37.14 12.78L37.14 6.12L37.14 6.12Q37.14 5.98 37.23 5.89L37.23 5.89L37.23 5.89Q37.31 5.81 37.45 5.81L37.45 5.81L37.69 5.81L37.69 5.81Q37.83 5.81 37.91 5.89L37.91 5.89L37.91 5.89Q38.00 5.98 38.00 6.12L38.00 6.12L38.00 12.78L38.00 12.78Q38.00 12.92 37.91 13.01L37.91 13.01L37.91 13.01Q37.83 13.09 37.69 13.09L37.69 13.09L37.45 13.09ZM42.98 16.17L42.98 16.17Q41.89 16.17 41.23 15.79L41.23 15.79L41.23 15.79Q40.57 15.41 40.31 14.93L40.31 14.93L40.31 14.93Q40.05 14.45 40.05 14.08L40.05 14.08L40.05 14.08Q40.05 13.96 40.14 13.87L40.14 13.87L40.14 13.87Q40.24 13.79 40.36 13.79L40.36 13.79L40.56 13.79L40.56 13.79Q40.68 13.79 40.76 13.85L40.76 13.85L40.76 13.85Q40.84 13.92 40.89 14.08L40.89 14.08L40.89 14.08Q41.33 15.36 42.91 15.36L42.91 15.36L42.91 15.36Q44.11 15.36 44.69 14.86L44.69 14.86L44.69 14.86Q45.26 14.36 45.26 13.09L45.26 13.09L45.26 12.12L45.26 12.12Q44.45 13.23 42.91 13.23L42.91 13.23L42.91 13.23Q41.40 13.23 40.68 12.24L40.68 12.24L40.68 12.24Q39.96 11.26 39.91 9.84L39.91 9.84L39.90 9.45L39.91 9.06L39.91 9.06Q39.96 7.64 40.68 6.66L40.68 6.66L40.68 6.66Q41.40 5.67 42.91 5.67L42.91 5.67L42.91 5.67Q44.44 5.67 45.26 6.78L45.26 6.78L45.26 6.13L45.26 6.13Q45.26 5.99 45.35 5.90L45.35 5.90L45.35 5.90Q45.43 5.81 45.57 5.81L45.57 5.81L45.79 5.81L45.79 5.81Q45.93 5.81 46.02 5.90L46.02 5.90L46.02 5.90Q46.12 5.99 46.12 6.13L46.12 6.13L46.12 12.95L46.12 12.95Q46.12 14.45 45.42 15.31L45.42 15.31L45.42 15.31Q44.72 16.17 42.98 16.17L42.98 16.17ZM42.99 12.42L42.99 12.42Q44.10 12.42 44.66 11.68L44.66 11.68L44.66 11.68Q45.22 10.95 45.26 9.95L45.26 9.95L45.26 9.95Q45.28 9.81 45.28 9.45L45.28 9.45L45.28 9.45Q45.28 9.09 45.26 8.95L45.26 8.95L45.26 8.95Q45.22 7.95 44.66 7.22L44.66 7.22L44.66 7.22Q44.10 6.48 42.99 6.48L42.99 6.48L42.99 6.48Q41.86 6.48 41.33 7.20L41.33 7.20L41.33 7.20Q40.81 7.92 40.77 9.06L40.77 9.06L40.75 9.45L40.77 9.84L40.77 9.84Q40.81 10.98 41.33 11.70L41.33 11.70L41.33 11.70Q41.86 12.42 42.99 12.42L42.99 12.42ZM48.72 13.09L48.72 13.09Q48.58 13.09 48.50 13.01L48.50 13.01L48.50 13.01Q48.41 12.92 48.41 12.78L48.41 12.78L48.41 3.46L48.41 3.46Q48.41 3.32 48.50 3.23L48.50 3.23L48.50 3.23Q48.58 3.15 48.72 3.15L48.72 3.15L48.96 3.15L48.96 3.15Q49.10 3.15 49.18 3.23L49.18 3.23L49.18 3.23Q49.27 3.32 49.27 3.46L49.27 3.46L49.27 6.78L49.27 6.78Q49.69 6.23 50.22 5.95L50.22 5.95L50.22 5.95Q50.76 5.67 51.62 5.67L51.62 5.67L51.62 5.67Q52.99 5.67 53.73 6.54L53.73 6.54L53.73 6.54Q54.47 7.42 54.47 8.81L54.47 8.81L54.47 12.78L54.47 12.78Q54.47 12.92 54.39 13.01L54.39 13.01L54.39 13.01Q54.31 13.09 54.17 13.09L54.17 13.09L53.93 13.09L53.93 13.09Q53.79 13.09 53.70 13.01L53.70 13.01L53.70 13.01Q53.62 12.92 53.62 12.78L53.62 12.78L53.62 8.88L53.62 8.88Q53.62 7.74 53.07 7.11L53.07 7.11L53.07 7.11Q52.51 6.48 51.48 6.48L51.48 6.48L51.48 6.48Q50.47 6.48 49.87 7.12L49.87 7.12L49.87 7.12Q49.27 7.76 49.27 8.88L49.27 8.88L49.27 12.78L49.27 12.78Q49.27 12.92 49.18 13.01L49.18 13.01L49.18 13.01Q49.10 13.09 48.96 13.09L48.96 13.09L48.72 13.09ZM59.12 13.09L59.12 13.09Q58.09 13.09 57.65 12.47L57.65 12.47L57.65 12.47Q57.22 11.84 57.22 10.75L57.22 10.75L57.22 6.62L56.13 6.62L56.13 6.62Q55.99 6.62 55.90 6.54L55.90 6.54L55.90 6.54Q55.82 6.45 55.82 6.31L55.82 6.31L55.82 6.12L55.82 6.12Q55.82 5.98 55.90 5.89L55.90 5.89L55.90 5.89Q55.99 5.81 56.13 5.81L56.13 5.81L57.22 5.81L57.22 3.46L57.22 3.46Q57.22 3.32 57.30 3.23L57.30 3.23L57.30 3.23Q57.39 3.15 57.53 3.15L57.53 3.15L57.76 3.15L57.76 3.15Q57.90 3.15 57.99 3.23L57.99 3.23L57.99 3.23Q58.07 3.32 58.07 3.46L58.07 3.46L58.07 5.81L59.81 5.81L59.81 5.81Q59.95 5.81 60.03 5.89L60.03 5.89L60.03 5.89Q60.12 5.98 60.12 6.12L60.12 6.12L60.12 6.31L60.12 6.31Q60.12 6.45 60.03 6.54L60.03 6.54L60.03 6.54Q59.95 6.62 59.81 6.62L59.81 6.62L58.07 6.62L58.07 10.70L58.07 10.70Q58.07 11.48 58.33 11.88L58.33 11.88L58.33 11.88Q58.59 12.28 59.19 12.28L59.19 12.28L59.95 12.28L59.95 12.28Q60.09 12.28 60.17 12.36L60.17 12.36L60.17 12.36Q60.26 12.45 60.26 12.59L60.26 12.59L60.26 12.78L60.26 12.78Q60.26 12.92 60.17 13.01L60.17 13.01L60.17 13.01Q60.09 13.09 59.95 13.09L59.95 13.09L59.12 13.09Z"></path></g><!----><!----></svg>